#!OML:ASF E:\Steps\Project 1\Capture day 1\Session 2\Subject.ASF
:FULLY-SPECIFIED
:DEGREES
848
root -0.922597 17.969 20.6937 -153.077 -14.952 176.059
lowerback -26.5029 2.7774 -6.98672
upperback -1.87745 5.42959 -1.7825
thorax 12.164 1.94639 3.86258
lowerneck 1.66256 15.7981 6.13489
upperneck -1.25106 21.1876 -7.68367
head 0.888046 10.6223 -3.11206
rclavicle 4.66647e-014 -5.42682e-014
rhumerus -41.784 -18.808 -75.479
rradius 39.7172
rwrist -0.739079
rhand -12.8239 -56.0761
rfingers 7.12502
rthumb 13.2629 -85.6342
lclavicle 4.66647e-014 -5.42682e-014
lhumerus -30.6033 8.63753 74.2298
lradius 19.2386
lwrist -6.52759
lhand -24.8378 -10.7473
lfingers 7.12502
lthumb 1.66821 19.2259
rfemur -21.5747 2.33517 19.9941
rtibia 6.09268
rfoot -21.2974 -12.2116
rtoes -7.91711
lfemur -26.7172 -13.729 -20.2756
ltibia 10.5029
lfoot -4.08882 -10.7878
ltoes -7.56071
849
root -0.92807 17.9684 20.6929 -153.11 -14.9338 176.116
lowerback -26.5275 2.78696 -6.91774
upperback -1.85623 5.42567 -1.76075
thorax 12.2069 1.94626 3.84976
lowerneck 1.70638 15.8034 6.22424
upperneck -1.22659 21.2007 -7.73809
head 0.906544 10.6297 -3.14286
rclavicle 3.64273e-014 2.99171e-014
rhumerus -41.7306 -18.7245 -75.5699
rradius 39.9742
rwrist -0.913174
rhand -12.4526 -56.1648
rfingers 7.12502
rthumb 13.6208 -85.6991
lclavicle 3.64273e-014 2.99171e-014
lhumerus -30.5682 8.7969 74.1286
lradius 19.1788
lwrist -6.77914
lhand -24.8325 -11.0708
lfingers 7.12502
lthumb 1.67336 18.9024
rfemur -21.5437 2.4129 19.9944
rtibia 6.0768
rfoot -21.3915 -12.1675
rtoes -7.27024
lfemur -26.6613 -13.8514 -20.2054
ltibia 10.445
lfoot -4.10249 -10.6278
ltoes -7.14668
850
root -0.928809 17.9686 20.6967 -153.093 -14.9006 176.122
lowerback -26.4883 2.76549 -6.93691
upperback -1.87197 5.39606 -1.74916
thorax 12.1673 1.93344 3.86033
lowerneck 1.7733 15.7775 6.2657
upperneck -1.20873 21.1709 -7.73587
head 0.903455 10.6161 -3.15492
rclavicle 8.99004e-014 -2.88238e-015
rhumerus -41.6259 -18.6608 -75.6156
rradius 39.9587
rwrist -0.852986
rhand -11.5782 -56.589
rfingers 7.12502
rthumb 14.4634 -86.065
lclavicle 8.99004e-014 -2.88238e-015
lhumerus -30.6062 8.96753 74.0191
lradius 19.2017
lwrist -7.06215
lhand -24.362 -11.8147
lfingers 7.12502
lthumb 2.12779 18.1545
rfemur -21.6031 2.48035 19.9854
rtibia 6.13467
rfoot -21.5118 -12.0858
rtoes -6.51126
lfemur -26.6798 -13.7677 -20.2317
ltibia 10.4457
lfoot -4.08023 -10.7064
ltoes -6.48223
851
root -0.930558 17.9686 20.6981 -153.133 -14.8424 176.148
lowerback -26.4723 2.75171 -6.92324
upperback -1.85481 5.37511 -1.73961
thorax 12.1814 1.92437 3.85612
lowerneck 1.77713 15.7185 6.27454
upperneck -1.15807 21.0942 -7.67451
head 0.907134 10.5775 -3.13938
rclavicle -2.06488e-014 3.37934e-015
rhumerus -41.5884 -18.6373 -75.6828
rradius 40.0403
rwrist -0.719927
rhand -10.7834 -57.4181
rfingers 7.12502
rthumb 15.2292 -86.8376
lclavicle -2.06488e-014 3.37934e-015
lhumerus -30.6372 9.03361 73.956
lradius 19.2957
lwrist -7.03532
lhand -23.8288 -12.2141
lfingers 7.12502
lthumb 2.64267 17.7493
rfemur -21.6154 2.25577 20.0465
rtibia 6.20611
rfoot -21.4588 -11.8568
rtoes -7.11793
lfemur -26.6705 -13.8092 -20.2165
ltibia 10.4927
lfoot -4.1224 -10.6201
ltoes -6.50757
852
root -0.934366 17.9682 20.7001 -153.163 -14.8047 176.213
lowerback -26.4536 2.78378 -6.83733
upperback -1.85124 5.39159 -1.73453
thorax 12.1815 1.93731 3.81821
lowerneck 1.65163 15.6875 6.26746
upperneck -1.10499 21.0489 -7.65347
head 0.938728 10.5519 -3.11972
rclavicle -2.90474e-014 4.54223e-014
rhumerus -41.6524 -18.6322 -75.7361
rradius 40.2521
rwrist -0.562373
rhand -10.4516 -57.9066
rfingers 7.12502
rthumb 15.5487 -87.3015
lclavicle -2.90474e-014 4.54223e-014
lhumerus -30.604 8.81144 74.0251
lradius 19.3811
lwrist -6.72506
lhand -23.4219 -12.5242
lfingers 7.12502
lthumb 3.03563 17.4339
rfemur -21.6251 1.99196 20.1507
rtibia 6.20517
rfoot -21.2777 -11.6804
rtoes -8.1984
lfemur -26.6869 -13.9237 -20.1284
ltibia 10.5268
lfoot -4.15012 -10.445
ltoes -6.53128
853
root -0.93292 17.9701 20.7047 -153.191 -14.7981 176.209
lowerback -26.3325 2.81048 -6.86588
upperback -1.87152 5.42635 -1.75719
thorax 12.0888 1.95831 3.81179
lowerneck 1.80529 15.637 6.3676
upperneck -1.23515 20.9854 -7.5859
head 0.868865 10.5235 -3.13778
rclavicle 5.99087e-014 -2.43511e-014
rhumerus -41.6867 -18.623 -75.8086
rradius 40.3436
rwrist -0.45836
rhand -10.1506 -58.0759
rfingers 7.12502
rthumb 15.8386 -87.448
lclavicle 5.99087e-014 -2.43511e-014
lhumerus -30.508 8.4092 74.1488
lradius 19.4193
lwrist -6.33292
lhand -23.0729 -12.9745
lfingers 7.12502
lthumb 3.37268 16.9785
rfemur -21.5347 2.13227 20.1496
rtibia 6.06821
rfoot -21.1704 -11.8637
rtoes -8.5006
lfemur -26.6765 -13.8216 -20.1613
ltibia 10.5678
lfoot -4.10288 -10.5726
ltoes -5.99758
854
root -0.934542 17.9709 20.7064 -153.241 -14.7433 176.213
lowerback -26.27 2.87111 -6.87238
upperback -1.86435 5.51007 -1.79878
thorax 12.059 2.00006 3.79301
lowerneck 1.81058 15.603 6.52356
upperneck -1.14874 20.9477 -7.50216
head 0.900412 10.504 -3.1319
rclavicle -4.13099e-014 5.38706e-014
rhumerus -41.6875 -18.6522 -75.8794
rradius 40.3512
rwrist -0.504711
rhand -9.81177 -58.2175
rfingers 7.12502
rthumb 16.1649 -87.5634
lclavicle -4.13099e-014 5.38706e-014
lhumerus -30.3504 8.4363 74.1223
lradius 19.3983
lwrist -6.38023
lhand -23.0749 -13.2533
lfingers 7.12502
lthumb 3.37076 16.6997
rfemur -21.4525 2.38049 20.0631
rtibia 5.99027
rfoot -21.1285 -12.0644
rtoes -8.17437
lfemur -26.6242 -13.9257 -20.1325
ltibia 10.5479
lfoot -4.1458 -10.4467
ltoes -5.79003
855
root -0.933248 17.9718 20.7112 -153.257 -14.6758 176.198
lowerback -26.1841 2.9179 -6.95304
upperback -1.86294 5.5915 -1.81488
thorax 11.9999 2.0378 3.84204
lowerneck 1.72203 15.5099 6.58127
upperneck -1.04096 20.8244 -7.44941
head 0.941363 10.44 -3.11649
rclavicle -1.07468e-014 -2.34566e-014
rhumerus -41.6861 -18.6872 -75.9182
rradius 40.374
rwrist -0.730512
rhand -10.4773 -57.7352
rfingers 7.12502
rthumb 15.524 -87.132
lclavicle -1.07468e-014 -2.34566e-014
lhumerus -30.1805 8.79201 74.0254
lradius 19.3526
lwrist -6.78726
lhand -23.2965 -13.7358
lfingers 7.12502
lthumb 3.1568 16.2206
rfemur -21.4656 2.4613 20.0102
rtibia 6.00406
rfoot -21.1593 -12.0043
rtoes -7.46528
lfemur -26.6204 -13.8647 -20.166
ltibia 10.5193
lfoot -4.11443 -10.4032
ltoes -5.68532
856
root -0.935769 17.9708 20.7123 -153.209 -14.6512 176.247
lowerback -26.2745 2.94891 -6.93391
upperback -1.84873 5.63396 -1.80222
thorax 12.0611 2.05402 3.86665
lowerneck 1.60363 15.3852 6.61816
upperneck -0.93672 20.657 -7.49446
head 0.992781 10.3538 -3.12782
rclavicle -5.44918e-014 -2.32578e-014
rhumerus -41.6343 -18.7179 -75.9622
rradius 40.3307
rwrist -0.948713
rhand -12.0161 -56.5297
rfingers 7.12502
rthumb 14.0415 -86.0354
lclavicle -5.44918e-014 -2.32578e-014
lhumerus -30.0179 8.78469 74.1153
lradius 19.3943
lwrist -6.72799
lhand -23.7341 -13.2361
lfingers 7.12502
lthumb 2.73416 16.7261
rfemur -21.4926 2.27375 20.0811
rtibia 5.90308
rfoot -21.1782 -11.7333
rtoes -7.6318
lfemur -26.6926 -13.8742 -20.1182
ltibia 10.5104
lfoot -4.13058 -10.3198
ltoes -5.9761
857
root -0.93841 17.9695 20.7134 -153.153 -14.6241 176.309
lowerback -26.3742 2.96384 -6.87209
upperback -1.84377 5.64168 -1.79134
thorax 12.1246 2.05609 3.85374
lowerneck 1.43966 15.2593 6.59782
upperneck -0.800949 20.4854 -7.50743
head 1.05154 10.2643 -3.1162
rclavicle -3.3048e-014 3.73715e-014
rhumerus -41.6605 -18.8145 -75.9405
rradius 40.3274
rwrist -0.80941
rhand -12.5553 -55.6779
rfingers 7.12502
rthumb 13.5219 -85.2189
lclavicle -3.3048e-014 3.73715e-014
lhumerus -29.9081 8.62876 74.2716
lradius 19.4967
lwrist -6.54074
lhand -24.2443 -12.3273
lfingers 7.12502
lthumb 2.24144 17.6406
rfemur -21.5142 2.2595 20.138
rtibia 5.77142
rfoot -21.1451 -11.6623
rtoes -7.65883
lfemur -26.8008 -13.9322 -20.0278
ltibia 10.5712
lfoot -4.21398 -10.2739
ltoes -6.29614
858
root -0.938515 17.9703 20.7147 -153.174 -14.5627 176.294
lowerback -26.3176 2.95568 -6.90551
upperback -1.84859 5.63698 -1.80202
thorax 12.0869 2.0548 3.85478
lowerneck 1.35167 15.1911 6.60844
upperneck -0.687574 20.3943 -7.48937
head 1.09572 10.2166 -3.10349
rclavicle -7.14879e-014 2.24627e-014
rhumerus -41.7315 -18.8398 -75.9337
rradius 40.3083
rwrist -0.537393
rhand -12.4233 -55.475
rfingers 7.12502
rthumb 13.649 -85.0075
lclavicle -7.14879e-014 2.24627e-014
lhumerus -29.8772 8.40377 74.3629
lradius 19.6367
lwrist -6.42228
lhand -24.1191 -13.1387
lfingers 7.12502
lthumb 2.36233 16.828
rfemur -21.4323 2.4922 20.0616
rtibia 5.66791
rfoot -21.1178 -11.8101
rtoes -7.00896
lfemur -26.7683 -13.9308 -20.0549
ltibia 10.5745
lfoot -4.22882 -10.2372
ltoes -6.3197
859
root -0.938333 17.9708 20.7176 -153.15 -14.5297 176.301
lowerback -26.2768 2.94057 -6.93179
upperback -1.88584 5.61562 -1.81259
thorax 12.0221 2.04644 3.84576
lowerneck 1.31527 15.195 6.76916
upperneck -0.467763 20.4099 -7.48671
head 1.19236 10.223 -3.11047
rclavicle 6.25923e-014 -1.99779e-014
rhumerus -41.7841 -18.7612 -76.0178
rradius 40.2619
rwrist -0.484235
rhand -12.4292 -55.7777
rfingers 7.12502
rthumb 13.6434 -85.3106
lclavicle 6.25923e-014 -1.99779e-014
lhumerus -29.8677 7.95814 74.4818
lradius 19.8163
lwrist -6.15793
lhand -23.8204 -13.9048
lfingers 7.12502
lthumb 2.65079 16.0585
rfemur -21.4561 2.4988 20.0632
rtibia 5.63004
rfoot -21.014 -11.8303
rtoes -7.14218
lfemur -26.8057 -13.8884 -20.052
ltibia 10.5699
lfoot -4.18154 -10.1468
ltoes -6.54225
860
root -0.93806 17.9702 20.7253 -153.052 -14.529 176.308
lowerback -26.2725 2.9241 -6.94775
upperback -1.9321 5.59061 -1.82842
thorax 11.9683 2.03565 3.82578
lowerneck 1.09947 15.1231 6.95329
upperneck -0.159013 20.3166 -7.36658
head 1.32881 10.1712 -3.07074
rclavicle 5.89521e-014 -2.9122e-014
rhumerus -41.8714 -18.8729 -76.0285
rradius 40.2987
rwrist -0.287134
rhand -12.0132 -56.2904
rfingers 7.12502
rthumb 14.0443 -85.7958
lclavicle 5.89521e-014 -2.9122e-014
lhumerus -29.7771 7.65156 74.5906
lradius 19.9284
lwrist -6.12566
lhand -24.0446 -13.6861
lfingers 7.12502
lthumb 2.43424 16.2798
rfemur -21.6299 2.42487 20.0719
rtibia 5.6694
rfoot -20.9345 -11.7967
rtoes -7.50496
lfemur -27.0089 -13.9204 -19.9968
ltibia 10.6754
lfoot -4.18911 -10.0683
ltoes -6.6333
861
root -0.940047 17.9708 20.7276 -153.088 -14.4383 176.293
lowerback -26.2419 2.93722 -6.97559
upperback -1.89422 5.62288 -1.84485
thorax 11.992 2.04953 3.83347
lowerneck 1.02961 15.0653 7.07319
upperneck -0.0916619 20.2405 -7.38471
head 1.37269 10.1317 -3.0883
rclavicle -9.99887e-014 3.71727e-014
rhumerus -41.8955 -19.048 -75.9652
rradius 40.2727
rwrist -0.0286357
rhand -11.5418 -56.5515
rfingers 7.12502
rthumb 14.4985 -86.025
lclavicle -9.99887e-014 3.71727e-014
lhumerus -29.5735 7.77251 74.5838
lradius 19.9046
lwrist -6.53212
lhand -24.1688 -13.8026
lfingers 7.12502
lthumb 2.31437 16.1646
rfemur -21.616 2.43569 20.0232
rtibia 5.69714
rfoot -20.9748 -11.7184
rtoes -7.57432
lfemur -26.9613 -13.9355 -20.0356
ltibia 10.6655
lfoot -4.25746 -10.0362
ltoes -6.79138
862
root -0.941923 17.9712 20.732 -153.086 -14.4232 176.309
lowerback -26.2237 2.92908 -6.94093
upperback -1.8655 5.60724 -1.84813
thorax 12.0214 2.04403 3.80524
lowerneck 0.980124 15.0033 7.10874
upperneck -0.0995128 20.1561 -7.4409
head 1.38306 10.0886 -3.11155
rclavicle 1.01753e-014 -2.5842e-014
rhumerus -41.844 -19.0683 -75.9677
rradius 40.161
rwrist -0.0508334
rhand -11.3419 -56.6583
rfingers 7.12502
rthumb 14.6911 -86.1177
lclavicle 1.01753e-014 -2.5842e-014
lhumerus -29.3555 7.86065 74.5871
lradius 19.9235
lwrist -6.78534
lhand -23.883 -13.9104
lfingers 7.12502
lthumb 2.59037 16.0536
rfemur -21.6526 2.4366 20.0246
rtibia 5.73101
rfoot -21.0433 -11.651
rtoes -7.13808
lfemur -26.9891 -13.9023 -20.0356
ltibia 10.6716
lfoot -4.31583 -10.0775
ltoes -7.51466
